<mxfile host="app.diagrams.net" modified="2024-02-18T23:59:14.318Z" agent="Mozilla/5.0 (Windows NT 10.0; Win64; x64) AppleWebKit/537.36 (KHTML, like Gecko) Chrome/121.0.0.0 Safari/537.36 Edg/121.0.0.0" etag="PekfN86e7e3T6J7pWxY2" version="23.1.5" type="device">
  <diagram name="Page-1" id="c9db0220-8083-56f3-ca83-edcdcd058819">
    <mxGraphModel dx="2625" dy="785" grid="1" gridSize="10" guides="1" tooltips="1" connect="1" arrows="1" fold="1" page="1" pageScale="1.5" pageWidth="826" pageHeight="1169" background="none" math="0" shadow="0">
      <root>
        <mxCell id="0" style=";html=1;" />
        <mxCell id="1" style=";html=1;" parent="0" />
        <mxCell id="VOcoa71yCtvSqCTFk03O-1" value="nav bar" style="whiteSpace=wrap;html=1;" vertex="1" parent="1">
          <mxGeometry x="-20" y="10" width="1050" height="60" as="geometry" />
        </mxCell>
        <mxCell id="VOcoa71yCtvSqCTFk03O-2" value="Navbar" style="html=1;shadow=0;dashed=0;fillColor=#343A40;strokeColor=none;fontSize=16;fontColor=#ffffff;align=left;spacing=15;" vertex="1" parent="1">
          <mxGeometry x="-30" y="10" width="800" height="60" as="geometry" />
        </mxCell>
        <mxCell id="VOcoa71yCtvSqCTFk03O-3" value="Home" style="fillColor=none;strokeColor=none;fontSize=14;fontColor=#ffffff;align=center;" vertex="1" parent="VOcoa71yCtvSqCTFk03O-2">
          <mxGeometry width="70" height="40" relative="1" as="geometry">
            <mxPoint x="70" y="10" as="offset" />
          </mxGeometry>
        </mxCell>
        <mxCell id="VOcoa71yCtvSqCTFk03O-4" value="Features" style="fillColor=none;strokeColor=none;fontSize=14;fontColor=#9A9DA0;align=center;" vertex="1" parent="VOcoa71yCtvSqCTFk03O-2">
          <mxGeometry width="70" height="40" relative="1" as="geometry">
            <mxPoint x="140" y="10" as="offset" />
          </mxGeometry>
        </mxCell>
        <mxCell id="VOcoa71yCtvSqCTFk03O-5" value="Pricing" style="fillColor=none;strokeColor=none;fontSize=14;fontColor=#9A9DA0;align=center;spacingRight=0;" vertex="1" parent="VOcoa71yCtvSqCTFk03O-2">
          <mxGeometry width="80" height="40" relative="1" as="geometry">
            <mxPoint x="210" y="10" as="offset" />
          </mxGeometry>
        </mxCell>
        <mxCell id="VOcoa71yCtvSqCTFk03O-6" value="About" style="fillColor=none;strokeColor=none;fontSize=14;fontColor=#9A9DA0;align=center;" vertex="1" parent="VOcoa71yCtvSqCTFk03O-2">
          <mxGeometry width="80" height="40" relative="1" as="geometry">
            <mxPoint x="290" y="10" as="offset" />
          </mxGeometry>
        </mxCell>
        <mxCell id="VOcoa71yCtvSqCTFk03O-7" value="Search" style="html=1;shadow=0;dashed=0;shape=mxgraph.bootstrap.rrect;rSize=5;fontSize=14;fontColor=#1CA5B8;strokeColor=#1CA5B8;fillColor=none;" vertex="1" parent="VOcoa71yCtvSqCTFk03O-2">
          <mxGeometry x="1" width="70" height="40" relative="1" as="geometry">
            <mxPoint x="-80" y="10" as="offset" />
          </mxGeometry>
        </mxCell>
        <mxCell id="VOcoa71yCtvSqCTFk03O-8" value="Search" style="html=1;shadow=0;dashed=0;shape=mxgraph.bootstrap.rrect;rSize=5;fontSize=14;fontColor=#6C767D;strokeColor=#CED4DA;fillColor=#ffffff;align=left;spacing=10;" vertex="1" parent="VOcoa71yCtvSqCTFk03O-2">
          <mxGeometry x="1" width="180" height="40" relative="1" as="geometry">
            <mxPoint x="-270" y="10" as="offset" />
          </mxGeometry>
        </mxCell>
        <mxCell id="VOcoa71yCtvSqCTFk03O-9" value="&lt;b&gt;&lt;font style=&quot;font-size: 17px&quot;&gt;Card title that wraps to a new line&lt;/font&gt;&lt;/b&gt;&lt;br&gt;&lt;br&gt;This is a longer card with supporting text below as a natural lead-in to additional content. This content is a little bit longer." style="html=1;shadow=0;dashed=0;shape=mxgraph.bootstrap.rrect;rSize=5;strokeColor=#DFDFDF;html=1;whiteSpace=wrap;fillColor=#ffffff;fontColor=#000000;verticalAlign=top;align=left;spacing=20;spacingBottom=0;fontSize=14;spacingTop=160;" vertex="1" parent="1">
          <mxGeometry x="80" y="150" width="320" height="290" as="geometry" />
        </mxCell>
        <mxCell id="VOcoa71yCtvSqCTFk03O-10" value="Image cap" style="html=1;shadow=0;dashed=0;shape=mxgraph.bootstrap.topButton;rSize=5;perimeter=none;whiteSpace=wrap;fillColor=#868E96;strokeColor=#DFDFDF;fontColor=#DEE2E6;resizeWidth=1;fontSize=18;" vertex="1" parent="VOcoa71yCtvSqCTFk03O-9">
          <mxGeometry width="320" height="160" relative="1" as="geometry" />
        </mxCell>
        <mxCell id="VOcoa71yCtvSqCTFk03O-11" value="&lt;font style=&quot;font-size: 18px&quot;&gt;Lorem ipsum dolor sit amet, consectetur adipiscing elit. Integer posuere erat a ante.&lt;br&gt;&lt;br&gt;&lt;/font&gt;&lt;font style=&quot;font-size: 12px&quot; color=&quot;#999999&quot;&gt;- Someone famous in &lt;i&gt;Source Title&lt;/i&gt;&lt;/font&gt;" style="html=1;shadow=0;dashed=0;shape=mxgraph.bootstrap.rrect;rSize=5;strokeColor=#DFDFDF;html=1;whiteSpace=wrap;fillColor=#ffffff;fontColor=#000000;verticalAlign=top;align=left;spacing=30;spacingBottom=0;fontSize=14;spacingTop=0;" vertex="1" parent="1">
          <mxGeometry x="80" y="450" width="320" height="150" as="geometry" />
        </mxCell>
        <mxCell id="VOcoa71yCtvSqCTFk03O-12" value="&lt;b&gt;&lt;font style=&quot;font-size: 17px&quot;&gt;Card title&lt;/font&gt;&lt;/b&gt;&lt;br&gt;&lt;br&gt;This card has supporting text below as a natural lead-in to additional content.&lt;br&gt;&lt;br&gt;&lt;font color=&quot;#999999&quot; style=&quot;font-size: 12px&quot;&gt;Last updated 3 mins ago&lt;/font&gt;" style="html=1;shadow=0;dashed=0;shape=mxgraph.bootstrap.rrect;rSize=5;strokeColor=#DFDFDF;html=1;whiteSpace=wrap;fillColor=#ffffff;fontColor=#000000;verticalAlign=top;align=left;spacing=20;spacingBottom=0;fontSize=14;spacingTop=160;" vertex="1" parent="1">
          <mxGeometry x="410" y="140" width="320" height="300" as="geometry" />
        </mxCell>
        <mxCell id="VOcoa71yCtvSqCTFk03O-13" value="Image cap" style="html=1;shadow=0;dashed=0;shape=mxgraph.bootstrap.topButton;rSize=5;perimeter=none;whiteSpace=wrap;fillColor=#868E96;strokeColor=#DFDFDF;fontColor=#DEE2E6;resizeWidth=1;fontSize=18;" vertex="1" parent="VOcoa71yCtvSqCTFk03O-12">
          <mxGeometry width="320" height="160" relative="1" as="geometry" />
        </mxCell>
        <mxCell id="VOcoa71yCtvSqCTFk03O-14" value="&lt;font style=&quot;font-size: 18px&quot;&gt;Lorem ipsum dolor sit amet, consectetur adipiscing elit. Integer posuere erat a ante.&lt;br&gt;&lt;br&gt;&lt;/font&gt;&lt;font style=&quot;font-size: 12px&quot;&gt;- Someone famous in &lt;i&gt;Source Title&lt;/i&gt;&lt;/font&gt;" style="html=1;shadow=0;dashed=0;shape=mxgraph.bootstrap.rrect;rSize=5;strokeColor=#DFDFDF;html=1;whiteSpace=wrap;fillColor=#0085FC;fontColor=#FFFFFF;verticalAlign=top;align=center;spacing=10;fontSize=14;" vertex="1" parent="1">
          <mxGeometry x="410" y="460" width="320" height="130" as="geometry" />
        </mxCell>
        <mxCell id="VOcoa71yCtvSqCTFk03O-15" value="&lt;font style=&quot;font-size: 18px&quot;&gt;Card title&lt;/font&gt;&lt;br&gt;&lt;br&gt;This card has a regular title and short paragraphy of text below it.&lt;br&gt;&lt;br&gt;&lt;font color=&quot;#999999&quot; style=&quot;font-size: 12px&quot;&gt;Last updated 3 mins ago&lt;/font&gt;" style="html=1;shadow=0;dashed=0;shape=mxgraph.bootstrap.rrect;rSize=5;strokeColor=#DFDFDF;html=1;whiteSpace=wrap;fillColor=#ffffff;fontColor=#000000;verticalAlign=top;align=center;spacing=10;spacingBottom=0;fontSize=14;spacingTop=0;" vertex="1" parent="1">
          <mxGeometry x="410" y="600" width="320" height="130" as="geometry" />
        </mxCell>
        <mxCell id="VOcoa71yCtvSqCTFk03O-16" value="Card image" style="html=1;shadow=0;dashed=0;shape=mxgraph.bootstrap.rrect;rSize=5;strokeColor=#DFDFDF;html=1;whiteSpace=wrap;fillColor=#868E96;fontColor=#DEE2E6;verticalAlign=middle;align=center;spacing=10;spacingBottom=0;fontSize=14;spacingTop=0;" vertex="1" parent="1">
          <mxGeometry x="740" y="150" width="320" height="240" as="geometry" />
        </mxCell>
        <mxCell id="VOcoa71yCtvSqCTFk03O-17" value="&lt;font style=&quot;font-size: 18px&quot;&gt;Lorem ipsum dolor sit amet, consectetur adipiscing elit. Integer posuere erat a ante.&lt;br&gt;&lt;br&gt;&lt;/font&gt;&lt;font style=&quot;font-size: 12px&quot; color=&quot;#999999&quot;&gt;- Someone famous in &lt;i&gt;Source Title&lt;/i&gt;&lt;/font&gt;" style="html=1;shadow=0;dashed=0;shape=mxgraph.bootstrap.rrect;rSize=5;strokeColor=#DFDFDF;html=1;whiteSpace=wrap;fillColor=#ffffff;fontColor=#000000;verticalAlign=top;align=right;spacing=30;spacingBottom=0;fontSize=14;spacingTop=0;" vertex="1" parent="1">
          <mxGeometry x="740" y="400" width="320" height="150" as="geometry" />
        </mxCell>
        <mxCell id="VOcoa71yCtvSqCTFk03O-18" value="&lt;font style=&quot;font-size: 18px&quot;&gt;&lt;b&gt;Card title&lt;/b&gt;&lt;/font&gt;&lt;br&gt;&lt;br&gt;This is another card with title and supporting text below it. This card has some additional content to make it slightly taller overall.&lt;br&gt;&lt;br&gt;&lt;font color=&quot;#999999&quot; style=&quot;font-size: 12px&quot;&gt;Last updated 3 mins ago&lt;/font&gt;" style="html=1;shadow=0;dashed=0;shape=mxgraph.bootstrap.rrect;rSize=5;strokeColor=#DFDFDF;html=1;whiteSpace=wrap;fillColor=#ffffff;fontColor=#000000;verticalAlign=top;align=left;spacing=20;spacingBottom=0;fontSize=14;spacingTop=0;" vertex="1" parent="1">
          <mxGeometry x="740" y="560" width="320" height="160" as="geometry" />
        </mxCell>
      </root>
    </mxGraphModel>
  </diagram>
</mxfile>
